# xmcd CD database file generated by Grip 3.2.0
# 
# Track frame offsets:
#       150
#       18225
#       39305
# 
# Disc length: 777 seconds
# 
# Revision: 1
# Processed by: cddbd v1.5.2PL0 Copyright (c) Steve Scherf et al.
# Submitted via: Grip 3.2.0
# 
DISCID=16030703
DTITLE=Robin Beck - In My Heart To Stay
DYEAR=1992
DGENRE=Pop
TTITLE0=In My Heart To Stay
TTITLE1=Bad on Love
TTITLE2=Love Dont Live here Anymore
EXTD=
EXTT0=
EXTT1=
EXTT2=
PLAYORDER=
